<svg xmlns="http://www.w3.org/2000/svg"  viewBox="0 0 480.138 480.138" width="60px" height="60px"><path d="M424.049,158.139c-0.011,122.794-0.02,170.032-0.039,291.645c0,14.438-13.295,30.354-31.944,30.354h-304	c-17.645,0-32-14.355-32-32v-416c0-17.645,14.355-32,32-32c255.757,0,242.157-0.962,245.491,2.193	c0.426,0.401,87.752,87.736,88.166,88.15c5.019,5.019,1.465,13.657-5.657,13.657h-64c-30.503,0-40.787-40-24-40c4.418,0,8,3.582,8,8	c0,8.822,7.178,16,16,16h44.687l-72.001-72H88.066c-8.822,0-16,7.178-16,16v416c0,8.822,7.178,16,16,16h304	c8.305,0,15.262-6.417,15.944-14.653c0.02-123.96,0.028-167.973,0.039-291.348c0-4.418,3.582-7.999,8-7.999	C420.468,150.138,424.049,153.721,424.049,158.139z M201.066,133.138c0,4.418-3.582,8-8,8h-60c-4.418,0-8-3.582-8-8v-60	c0-4.418,3.582-8,8-8h60c4.418,0,8,3.582,8,8V133.138z M185.066,81.138h-44v44h44V81.138z M193.066,242.138c4.418,0,8-3.582,8-8v-21	c0-4.418-3.582-8-8-8h-60c-4.418,0-8,3.582-8,8v60c0,4.418,3.582,8,8,8h60c4.418,0,8-3.582,8-8s-3.582-8-8-8h-52v-44h44v13	C185.066,238.556,188.648,242.138,193.066,242.138z M133.066,345.138c-4.418,0-8,3.582-8,8v60c0,4.418,3.582,8,8,8h60	c4.418,0,8-3.582,8-8v-60c0-4.418-3.582-8-8-8h-20c-4.418,0-8,3.582-8,8s3.582,8,8,8h12v44h-44v-52	C141.066,348.72,137.484,345.138,133.066,345.138z M246.066,81.138h41c4.418,0,8-3.582,8-8s-3.582-8-8-8h-41c-4.418,0-8,3.582-8,8	S241.648,81.138,246.066,81.138z M246.066,141.138h61c4.418,0,8-3.582,8-8s-3.582-8-8-8h-61c-4.418,0-8,3.582-8,8	S241.648,141.138,246.066,141.138z M349.066,205.138h-103c-4.418,0-8,3.582-8,8s3.582,8,8,8h103c4.418,0,8-3.582,8-8	S353.484,205.138,349.066,205.138z M317.066,281.138c4.418,0,8-3.582,8-8s-3.582-8-8-8h-9c-4.418,0-8,3.582-8,8s3.582,8,8,8H317.066	z M246.066,281.138h29c4.418,0,8-3.582,8-8s-3.582-8-8-8h-29c-4.418,0-8,3.582-8,8S241.648,281.138,246.066,281.138z M357.066,353.138c0-4.418-3.582-8-8-8h-60c-4.418,0-8,3.582-8,8s3.582,8,8,8h60C353.484,361.138,357.066,357.556,357.066,353.138z M246.066,361.138h6c4.418,0,8-3.582,8-8s-3.582-8-8-8h-6c-4.418,0-8,3.582-8,8S241.648,361.138,246.066,361.138z M246.066,421.138	h71c4.418,0,8-3.582,8-8s-3.582-8-8-8h-71c-4.418,0-8,3.582-8,8S241.648,421.138,246.066,421.138z"/></svg>