<svg xmlns="http://www.w3.org/2000/svg"  viewBox="0 0 520 520" width="520px" height="520px"><path fill="#9bc9ff" d="M255,220c24.85,0,45,20.15,45,45c0,24.85-20.15,45-45,45c-24.86,0-45-20.15-45-45 C210,240.15,230.14,220,255,220z"/><circle cx="450" cy="70" r="30" fill="#9bc9ff"/><path fill="#9bc9ff" d="M70,425c13.8,0,25,11.19,25,25s-11.2,25-25,25c-13.81,0-25-11.19-25-25S56.19,425,70,425z"/><path fill="#fff" d="M255,245c11.04,0,20,8.95,20,20s-8.96,20-20,20c-11.05,0-20-8.95-20-20S243.95,245,255,245z"/><path fill="#1e81ce" d="M457.5,170c4.141,0,7.5,3.36,7.5,7.5s-3.359,7.5-7.5,7.5c-4.15,0-7.5-3.36-7.5-7.5 S453.35,170,457.5,170z"/><path fill="#1e81ce" d="M447.5,335c4.141,0,7.5,3.36,7.5,7.5s-3.359,7.5-7.5,7.5c-4.15,0-7.5-3.36-7.5-7.5 S443.35,335,447.5,335z"/><path fill="#1e81ce" d="M432.5,450c4.141,0,7.5,3.36,7.5,7.5s-3.359,7.5-7.5,7.5c-4.15,0-7.5-3.36-7.5-7.5 S428.35,450,432.5,450z"/><path fill="#1e81ce" d="M357.5,50c4.141,0,7.5,3.36,7.5,7.5s-3.359,7.5-7.5,7.5c-4.15,0-7.5-3.36-7.5-7.5 S353.35,50,357.5,50z"/><path fill="#1e81ce" d="M342.5,455c4.141,0,7.5,3.36,7.5,7.5s-3.359,7.5-7.5,7.5c-4.15,0-7.5-3.36-7.5-7.5 S338.35,455,342.5,455z"/><path fill="#1e81ce" d="M192.5,35c4.14,0,7.5,3.36,7.5,7.5s-3.36,7.5-7.5,7.5c-4.15,0-7.5-3.36-7.5-7.5S188.35,35,192.5,35 z"/><path fill="#1e81ce" d="M62.5,350c4.14,0,7.5,3.36,7.5,7.5s-3.36,7.5-7.5,7.5c-4.15,0-7.5-3.36-7.5-7.5S58.35,350,62.5,350 z"/><path fill="#1e81ce" d="M47.5,150c4.14,0,7.5,3.36,7.5,7.5s-3.36,7.5-7.5,7.5c-4.15,0-7.5-3.36-7.5-7.5S43.35,150,47.5,150 z"/><path fill="#1e81ce" d="M255,315c-27.57,0-50-22.43-50-50s22.43-50,50-50s50,22.43,50,50S282.57,315,255,315z M255,225 c-22.056,0-40,17.944-40,40c0,22.056,17.944,40,40,40c22.057,0,40-17.944,40-40C295,242.944,277.057,225,255,225z"/><path fill="#1e81ce" d="M255,290c-13.785,0-25-11.215-25-25s11.215-25,25-25s25,11.215,25,25S268.785,290,255,290z M255,250c-8.271,0-15,6.729-15,15c0,8.271,6.729,15,15,15c8.271,0,15-6.729,15-15C270,256.729,263.271,250,255,250z"/><path fill="#1e81ce" d="M255,485c-25.121,0-47.576-27.479-63.23-77.373c-6.439-20.494-11.371-43.728-14.658-69.054 c-1.741-13.408-3.008-27.391-3.765-41.557c-0.562-10.591-0.847-21.362-0.847-32.017c0-10.655,0.285-21.426,0.847-32.015 c0.757-14.168,2.024-28.15,3.765-41.559c3.287-25.326,8.219-48.56,14.658-69.054C207.424,72.479,229.879,45,255,45 c25.111,0,47.567,27.475,63.23,77.362c6.42,20.433,11.352,43.669,14.658,69.062c1.741,13.413,3.008,27.395,3.764,41.559 c0.563,10.59,0.848,21.362,0.848,32.017c0,10.654-0.285,21.426-0.847,32.015c-0.757,14.166-2.023,28.147-3.765,41.559 c-3.307,25.396-8.238,48.633-14.658,69.065C302.568,457.525,280.111,485,255,485z M255,55c-19.794,0-39.865,26.305-53.689,70.367 c-6.265,19.94-11.07,42.599-14.282,67.347c-1.709,13.16-2.953,26.888-3.696,40.803C182.78,243.928,182.5,254.521,182.5,265 s0.28,21.071,0.833,31.485c0.743,13.913,1.987,27.641,3.696,40.801c3.212,24.748,8.017,47.406,14.281,67.345 C215.135,448.694,235.206,475,255,475c19.787,0,39.857-26.302,53.689-70.358c6.246-19.878,11.052-42.54,14.283-67.357 c1.708-13.16,2.951-26.888,3.695-40.801c0.552-10.412,0.832-21.005,0.832-31.483s-0.28-21.072-0.833-31.485 c-0.743-13.911-1.986-27.639-3.695-40.802c-3.23-24.814-8.036-47.476-14.282-67.354C294.857,81.302,274.787,55,255,55z"/><path fill="#1e81ce" d="M130.512,431.647c-13.268,0-23.724-3.729-31.077-11.082c-17.759-17.759-14.213-53.066,9.983-99.419 c9.945-19.043,22.895-38.96,38.492-59.199c8.289-10.774,17.277-21.556,26.713-32.042c6.979-7.774,14.396-15.595,22.042-23.241 c7.539-7.539,15.359-14.956,23.243-22.043c10.56-9.493,21.341-18.481,32.044-26.714c20.248-15.595,40.164-28.542,59.194-38.479 c26.408-13.785,50.038-21.071,68.337-21.071c13.27,0,23.729,3.727,31.082,11.077c17.752,17.763,14.203,53.07-9.992,99.42 c-9.938,19.031-22.885,38.947-38.48,59.197c-8.227,10.694-17.215,21.476-26.713,32.042c-7.086,7.883-14.503,15.702-22.043,23.242 c-7.545,7.545-15.365,14.962-23.243,22.044c-10.642,9.557-21.423,18.545-32.044,26.714c-20.265,15.607-40.182,28.551-59.196,38.47 C172.441,424.355,148.809,431.647,130.512,431.647z M379.482,108.357c-16.693,0-38.724,6.894-63.709,19.936 c-18.514,9.668-37.934,22.298-57.723,37.539c-10.504,8.081-21.087,16.904-31.458,26.227c-7.753,6.97-15.443,14.263-22.857,21.678 c-7.52,7.52-14.812,15.209-21.675,22.854c-9.27,10.301-18.092,20.883-26.228,31.459c-15.244,19.779-27.876,39.2-37.551,57.726 c-21.368,40.934-25.77,73.727-11.776,87.721c5.41,5.409,13.486,8.152,24.006,8.152c16.691,0,38.723-6.898,63.714-19.949 c18.499-9.65,37.919-22.277,57.724-37.529c10.424-8.018,21.008-16.842,31.46-26.229c7.745-6.963,15.435-14.256,22.856-21.676 c7.414-7.416,14.708-15.106,21.676-22.857c9.329-10.377,18.152-20.961,26.225-31.456c15.244-19.791,27.873-39.211,37.542-57.726 c21.366-40.932,25.772-73.726,11.786-87.721C398.084,111.099,390.006,108.357,379.482,108.357z"/><path fill="#1e81ce" d="M379.482,431.643c-18.299,0-41.929-7.286-68.336-21.07c-19.029-9.937-38.945-22.884-59.197-38.481 c-10.693-8.225-21.475-17.213-32.042-26.712c-7.884-7.089-15.704-14.505-23.243-22.044c-7.642-7.642-15.059-15.462-22.045-23.245 c-9.435-10.484-18.424-21.267-26.712-32.041c-15.594-20.233-28.544-40.15-38.489-59.194c-24.197-46.354-27.742-81.661-9.983-99.42 c7.353-7.353,17.809-11.082,31.078-11.082c18.297,0,41.929,7.291,68.342,21.085c19.015,9.919,38.932,22.863,59.196,38.471 c10.627,8.174,21.408,17.162,32.04,26.711c7.88,7.083,15.699,14.5,23.245,22.045c7.545,7.545,14.961,15.365,22.043,23.243 c9.496,10.563,18.484,21.345,26.715,32.044c15.594,20.249,28.541,40.165,38.479,59.194c24.195,46.351,27.744,81.658,9.994,99.419 C403.211,427.917,392.753,431.643,379.482,431.643z M130.512,108.353c-10.52,0-18.597,2.743-24.006,8.153 c-13.994,13.994-9.591,46.786,11.777,87.72c9.674,18.526,22.308,37.947,37.548,57.721c8.135,10.576,16.958,21.159,26.226,31.458 c6.871,7.654,14.164,15.344,21.679,22.859c7.414,7.413,15.104,14.707,22.857,21.678c10.378,9.328,20.961,18.152,31.456,26.225 c19.793,15.244,39.214,27.874,57.726,37.541c24.984,13.041,47.015,19.935,63.708,19.935c10.523,0,18.603-2.741,24.014-8.149 c13.984-13.993,9.578-46.786-11.789-87.72c-9.666-18.512-22.297-37.933-37.539-57.723c-8.076-10.5-16.9-21.083-26.227-31.458 c-6.963-7.747-14.257-15.437-21.677-22.857c-7.421-7.421-15.111-14.714-22.857-21.678c-10.442-9.379-21.026-18.203-31.456-26.225 c-19.805-15.253-39.225-27.879-57.724-37.53C169.235,115.251,147.204,108.353,130.512,108.353z"/><path fill="#1e81ce" d="M255,347.5c-10.655,0-21.426-0.285-32.015-0.847c-14.156-0.756-28.138-2.022-41.558-3.766 c-25.347-3.298-48.586-8.229-69.073-14.657C62.471,312.566,35,290.11,35,265s27.471-47.566,77.352-63.23 c20.493-6.428,43.732-11.36,69.073-14.658c13.412-1.742,27.394-3.008,41.558-3.765c10.59-0.562,21.362-0.847,32.017-0.847 c10.654,0,21.426,0.285,32.016,0.847c14.166,0.757,28.148,2.023,41.559,3.765c25.396,3.307,48.632,8.238,69.064,14.659 C447.525,217.433,475,239.888,475,265c0,25.111-27.475,47.567-77.362,63.23c-20.431,6.419-43.667,11.351-69.062,14.657 c-13.422,1.743-27.404,3.01-41.56,3.766C276.426,347.215,265.654,347.5,255,347.5z M255,192.5c-10.479,0-21.072,0.28-31.485,0.833 c-13.912,0.743-27.64,1.986-40.801,3.695c-24.764,3.223-47.43,8.028-67.368,14.283C71.298,225.144,45,245.214,45,265 c0,19.786,26.298,39.856,70.348,53.689c19.932,6.253,42.598,11.059,67.368,14.282c13.169,1.71,26.897,2.953,40.801,3.695 c10.412,0.553,21.005,0.833,31.483,0.833s21.072-0.28,31.484-0.833c13.902-0.742,27.631-1.985,40.803-3.695 c24.816-3.231,47.479-8.036,67.354-14.282C438.698,304.857,465,284.787,465,265c0-19.787-26.302-39.858-70.357-53.689 c-19.879-6.246-42.541-11.052-67.357-14.283c-13.16-1.708-26.889-2.952-40.802-3.695C276.072,192.78,265.479,192.5,255,192.5z"/><path fill="#1e81ce" d="M450,105c-19.299,0-35-15.701-35-35s15.701-35,35-35s35,15.701,35,35S469.299,105,450,105z M450,45 c-13.785,0-25,11.215-25,25s11.215,25,25,25s25-11.215,25-25S463.785,45,450,45z"/><path fill="#1e81ce" d="M70,480c-16.542,0-30-13.458-30-30s13.458-30,30-30s30,13.458,30,30S86.542,480,70,480z M70,430 c-11.028,0-20,8.972-20,20s8.972,20,20,20s20-8.972,20-20S81.028,430,70,430z"/><path fill="#9bc9ff" d="M255,220c24.85,0,45,20.15,45,45c0,24.85-20.15,45-45,45c-24.86,0-45-20.15-45-45 C210,240.15,230.14,220,255,220z"/><circle cx="450" cy="70" r="30" fill="#9bc9ff"/><path fill="#9bc9ff" d="M70,425c13.8,0,25,11.19,25,25s-11.2,25-25,25c-13.81,0-25-11.19-25-25S56.19,425,70,425z"/><path fill="#fff" d="M255,245c11.04,0,20,8.95,20,20s-8.96,20-20,20c-11.05,0-20-8.95-20-20S243.95,245,255,245z"/><path fill="#1e81ce" d="M457.5,170c4.141,0,7.5,3.36,7.5,7.5s-3.359,7.5-7.5,7.5c-4.15,0-7.5-3.36-7.5-7.5 S453.35,170,457.5,170z"/><path fill="#1e81ce" d="M447.5,335c4.141,0,7.5,3.36,7.5,7.5s-3.359,7.5-7.5,7.5c-4.15,0-7.5-3.36-7.5-7.5 S443.35,335,447.5,335z"/><path fill="#1e81ce" d="M432.5,450c4.141,0,7.5,3.36,7.5,7.5s-3.359,7.5-7.5,7.5c-4.15,0-7.5-3.36-7.5-7.5 S428.35,450,432.5,450z"/><path fill="#1e81ce" d="M357.5,50c4.141,0,7.5,3.36,7.5,7.5s-3.359,7.5-7.5,7.5c-4.15,0-7.5-3.36-7.5-7.5 S353.35,50,357.5,50z"/><path fill="#1e81ce" d="M342.5,455c4.141,0,7.5,3.36,7.5,7.5s-3.359,7.5-7.5,7.5c-4.15,0-7.5-3.36-7.5-7.5 S338.35,455,342.5,455z"/><path fill="#1e81ce" d="M192.5,35c4.14,0,7.5,3.36,7.5,7.5s-3.36,7.5-7.5,7.5c-4.15,0-7.5-3.36-7.5-7.5S188.35,35,192.5,35 z"/><path fill="#1e81ce" d="M62.5,350c4.14,0,7.5,3.36,7.5,7.5s-3.36,7.5-7.5,7.5c-4.15,0-7.5-3.36-7.5-7.5S58.35,350,62.5,350 z"/><path fill="#1e81ce" d="M47.5,150c4.14,0,7.5,3.36,7.5,7.5s-3.36,7.5-7.5,7.5c-4.15,0-7.5-3.36-7.5-7.5S43.35,150,47.5,150 z"/><path fill="#1e81ce" d="M255,315c-27.57,0-50-22.43-50-50s22.43-50,50-50s50,22.43,50,50S282.57,315,255,315z M255,225 c-22.056,0-40,17.944-40,40c0,22.056,17.944,40,40,40c22.057,0,40-17.944,40-40C295,242.944,277.057,225,255,225z"/><path fill="#1e81ce" d="M255,290c-13.785,0-25-11.215-25-25s11.215-25,25-25s25,11.215,25,25S268.785,290,255,290z M255,250c-8.271,0-15,6.729-15,15c0,8.271,6.729,15,15,15c8.271,0,15-6.729,15-15C270,256.729,263.271,250,255,250z"/><path fill="#1e81ce" d="M255,485c-25.121,0-47.576-27.479-63.23-77.373c-6.439-20.494-11.371-43.728-14.658-69.054 c-1.741-13.408-3.008-27.391-3.765-41.557c-0.562-10.591-0.847-21.362-0.847-32.017c0-10.655,0.285-21.426,0.847-32.015 c0.757-14.168,2.024-28.15,3.765-41.559c3.287-25.326,8.219-48.56,14.658-69.054C207.424,72.479,229.879,45,255,45 c25.111,0,47.567,27.475,63.23,77.362c6.42,20.433,11.352,43.669,14.658,69.062c1.741,13.413,3.008,27.395,3.764,41.559 c0.563,10.59,0.848,21.362,0.848,32.017c0,10.654-0.285,21.426-0.847,32.015c-0.757,14.166-2.023,28.147-3.765,41.559 c-3.307,25.396-8.238,48.633-14.658,69.065C302.568,457.525,280.111,485,255,485z M255,55c-19.794,0-39.865,26.305-53.689,70.367 c-6.265,19.94-11.07,42.599-14.282,67.347c-1.709,13.16-2.953,26.888-3.696,40.803C182.78,243.928,182.5,254.521,182.5,265 s0.28,21.071,0.833,31.485c0.743,13.913,1.987,27.641,3.696,40.801c3.212,24.748,8.017,47.406,14.281,67.345 C215.135,448.694,235.206,475,255,475c19.787,0,39.857-26.302,53.689-70.358c6.246-19.878,11.052-42.54,14.283-67.357 c1.708-13.16,2.951-26.888,3.695-40.801c0.552-10.412,0.832-21.005,0.832-31.483s-0.28-21.072-0.833-31.485 c-0.743-13.911-1.986-27.639-3.695-40.802c-3.23-24.814-8.036-47.476-14.282-67.354C294.857,81.302,274.787,55,255,55z"/><path fill="#1e81ce" d="M130.512,431.647c-13.268,0-23.724-3.729-31.077-11.082c-17.759-17.759-14.213-53.066,9.983-99.419 c9.945-19.043,22.895-38.96,38.492-59.199c8.289-10.774,17.277-21.556,26.713-32.042c6.979-7.774,14.396-15.595,22.042-23.241 c7.539-7.539,15.359-14.956,23.243-22.043c10.56-9.493,21.341-18.481,32.044-26.714c20.248-15.595,40.164-28.542,59.194-38.479 c26.408-13.785,50.038-21.071,68.337-21.071c13.27,0,23.729,3.727,31.082,11.077c17.752,17.763,14.203,53.07-9.992,99.42 c-9.938,19.031-22.885,38.947-38.48,59.197c-8.227,10.694-17.215,21.476-26.713,32.042c-7.086,7.883-14.503,15.702-22.043,23.242 c-7.545,7.545-15.365,14.962-23.243,22.044c-10.642,9.557-21.423,18.545-32.044,26.714c-20.265,15.607-40.182,28.551-59.196,38.47 C172.441,424.355,148.809,431.647,130.512,431.647z M379.482,108.357c-16.693,0-38.724,6.894-63.709,19.936 c-18.514,9.668-37.934,22.298-57.723,37.539c-10.504,8.081-21.087,16.904-31.458,26.227c-7.753,6.97-15.443,14.263-22.857,21.678 c-7.52,7.52-14.812,15.209-21.675,22.854c-9.27,10.301-18.092,20.883-26.228,31.459c-15.244,19.779-27.876,39.2-37.551,57.726 c-21.368,40.934-25.77,73.727-11.776,87.721c5.41,5.409,13.486,8.152,24.006,8.152c16.691,0,38.723-6.898,63.714-19.949 c18.499-9.65,37.919-22.277,57.724-37.529c10.424-8.018,21.008-16.842,31.46-26.229c7.745-6.963,15.435-14.256,22.856-21.676 c7.414-7.416,14.708-15.106,21.676-22.857c9.329-10.377,18.152-20.961,26.225-31.456c15.244-19.791,27.873-39.211,37.542-57.726 c21.366-40.932,25.772-73.726,11.786-87.721C398.084,111.099,390.006,108.357,379.482,108.357z"/><path fill="#1e81ce" d="M379.482,431.643c-18.299,0-41.929-7.286-68.336-21.07c-19.029-9.937-38.945-22.884-59.197-38.481 c-10.693-8.225-21.475-17.213-32.042-26.712c-7.884-7.089-15.704-14.505-23.243-22.044c-7.642-7.642-15.059-15.462-22.045-23.245 c-9.435-10.484-18.424-21.267-26.712-32.041c-15.594-20.233-28.544-40.15-38.489-59.194c-24.197-46.354-27.742-81.661-9.983-99.42 c7.353-7.353,17.809-11.082,31.078-11.082c18.297,0,41.929,7.291,68.342,21.085c19.015,9.919,38.932,22.863,59.196,38.471 c10.627,8.174,21.408,17.162,32.04,26.711c7.88,7.083,15.699,14.5,23.245,22.045c7.545,7.545,14.961,15.365,22.043,23.243 c9.496,10.563,18.484,21.345,26.715,32.044c15.594,20.249,28.541,40.165,38.479,59.194c24.195,46.351,27.744,81.658,9.994,99.419 C403.211,427.917,392.753,431.643,379.482,431.643z M130.512,108.353c-10.52,0-18.597,2.743-24.006,8.153 c-13.994,13.994-9.591,46.786,11.777,87.72c9.674,18.526,22.308,37.947,37.548,57.721c8.135,10.576,16.958,21.159,26.226,31.458 c6.871,7.654,14.164,15.344,21.679,22.859c7.414,7.413,15.104,14.707,22.857,21.678c10.378,9.328,20.961,18.152,31.456,26.225 c19.793,15.244,39.214,27.874,57.726,37.541c24.984,13.041,47.015,19.935,63.708,19.935c10.523,0,18.603-2.741,24.014-8.149 c13.984-13.993,9.578-46.786-11.789-87.72c-9.666-18.512-22.297-37.933-37.539-57.723c-8.076-10.5-16.9-21.083-26.227-31.458 c-6.963-7.747-14.257-15.437-21.677-22.857c-7.421-7.421-15.111-14.714-22.857-21.678c-10.442-9.379-21.026-18.203-31.456-26.225 c-19.805-15.253-39.225-27.879-57.724-37.53C169.235,115.251,147.204,108.353,130.512,108.353z"/><path fill="#1e81ce" d="M255,347.5c-10.655,0-21.426-0.285-32.015-0.847c-14.156-0.756-28.138-2.022-41.558-3.766 c-25.347-3.298-48.586-8.229-69.073-14.657C62.471,312.566,35,290.11,35,265s27.471-47.566,77.352-63.23 c20.493-6.428,43.732-11.36,69.073-14.658c13.412-1.742,27.394-3.008,41.558-3.765c10.59-0.562,21.362-0.847,32.017-0.847 c10.654,0,21.426,0.285,32.016,0.847c14.166,0.757,28.148,2.023,41.559,3.765c25.396,3.307,48.632,8.238,69.064,14.659 C447.525,217.433,475,239.888,475,265c0,25.111-27.475,47.567-77.362,63.23c-20.431,6.419-43.667,11.351-69.062,14.657 c-13.422,1.743-27.404,3.01-41.56,3.766C276.426,347.215,265.654,347.5,255,347.5z M255,192.5c-10.479,0-21.072,0.28-31.485,0.833 c-13.912,0.743-27.64,1.986-40.801,3.695c-24.764,3.223-47.43,8.028-67.368,14.283C71.298,225.144,45,245.214,45,265 c0,19.786,26.298,39.856,70.348,53.689c19.932,6.253,42.598,11.059,67.368,14.282c13.169,1.71,26.897,2.953,40.801,3.695 c10.412,0.553,21.005,0.833,31.483,0.833s21.072-0.28,31.484-0.833c13.902-0.742,27.631-1.985,40.803-3.695 c24.816-3.231,47.479-8.036,67.354-14.282C438.698,304.857,465,284.787,465,265c0-19.787-26.302-39.858-70.357-53.689 c-19.879-6.246-42.541-11.052-67.357-14.283c-13.16-1.708-26.889-2.952-40.802-3.695C276.072,192.78,265.479,192.5,255,192.5z"/><path fill="#1e81ce" d="M450,105c-19.299,0-35-15.701-35-35s15.701-35,35-35s35,15.701,35,35S469.299,105,450,105z M450,45 c-13.785,0-25,11.215-25,25s11.215,25,25,25s25-11.215,25-25S463.785,45,450,45z"/><path fill="#1e81ce" d="M70,480c-16.542,0-30-13.458-30-30s13.458-30,30-30s30,13.458,30,30S86.542,480,70,480z M70,430 c-11.028,0-20,8.972-20,20s8.972,20,20,20s20-8.972,20-20S81.028,430,70,430z"/></svg>